<svg 
  width="24" 
  height="24" 
  viewBox="0 0 24 24" 
  fill="currentColor"
  xmlns="http://www.w3.org/2000/svg"
  aria-label="Settings"
  role="img"
>
  <path
    fill-rule="evenodd"
    clip-rule="evenodd"
    d="M12 8.5C10.067 8.5 8.5 10.067 8.5 12C8.5 13.933 10.067 15.5 12 15.5C13.933 15.5 15.5 13.933 15.5 12C15.5 10.067 13.933 8.5 12 8.5ZM10.5 12C10.5 11.1716 11.1716 10.5 12 10.5C12.8284 10.5 13.5 11.1716 13.5 12C13.5 12.8284 12.8284 13.5 12 13.5C11.1716 13.5 10.5 12.8284 10.5 12Z"
  />
  <path
    fill-rule="evenodd"
    clip-rule="evenodd"
    d="M11.374 2.10997C11.7639 1.96691 12.2361 1.96691 12.626 2.10997L13.126 2.30997C13.8402 2.57386 14.6696 2.35669 15.126 1.77997L15.426 1.39997C15.7011 1.05632 16.1052 0.851361 16.5359 0.835135C16.9666 0.818909 17.3849 0.992705 17.684 1.31197L18.684 2.31197C19.0033 2.61107 19.1771 3.02933 19.1609 3.46003C19.1446 3.89073 18.9397 4.29487 18.596 4.56997L18.216 4.86997C17.6393 5.32641 17.4221 6.15582 17.686 6.86997L17.886 7.36997C18.0291 7.75991 18.0291 8.23204 17.886 8.62197L17.686 9.12197C17.4221 9.83613 17.6393 10.6655 18.216 11.122L18.596 11.422C18.9397 11.6971 19.1446 12.1012 19.1609 12.5319C19.1771 12.9626 19.0033 13.3809 18.684 13.68L17.684 14.68C17.3849 14.9992 16.9666 15.173 16.5359 15.1568C16.1052 15.1406 15.7011 14.9356 15.426 14.592L15.126 14.212C14.6696 13.6353 13.8402 13.4181 13.126 13.682L12.626 13.882C12.2361 14.0251 11.7639 14.0251 11.374 13.882L10.874 13.682C10.1598 13.4181 9.33043 13.6353 8.874 14.212L8.574 14.592C8.2989 14.9356 7.89476 15.1406 7.46406 15.1568C7.03336 15.173 6.6151 14.9992 6.316 14.68L5.316 13.68C4.99673 13.3809 4.82294 12.9626 4.83916 12.5319C4.85539 12.1012 5.06035 11.6971 5.404 11.422L5.784 11.122C6.36067 10.6655 6.57784 9.83613 6.314 9.12197L6.114 8.62197C5.97094 8.23204 5.97094 7.75991 6.114 7.36997L6.314 6.86997C6.57784 6.15582 6.36067 5.32641 5.784 4.86997L5.404 4.56997C5.06035 4.29487 4.85539 3.89073 4.83916 3.46003C4.82294 3.02933 4.99673 2.61107 5.316 2.31197L6.316 1.31197C6.6151 0.992705 7.03336 0.818909 7.46406 0.835135C7.89476 0.851361 8.2989 1.05632 8.574 1.39997L8.874 1.77997C9.33043 2.35669 10.1598 2.57386 10.874 2.30997L11.374 2.10997ZM12 4.49997C7.85786 4.49997 4.5 7.85783 4.5 12C4.5 16.1421 7.85786 19.5 12 19.5C16.1421 19.5 19.5 16.1421 19.5 12C19.5 7.85783 16.1421 4.49997 12 4.49997Z"
  />
</svg>