<svg 
  viewBox="0 0 24 24"
  fill="currentColor"
  xmlns="http://www.w3.org/2000/svg"
  role="img"
  aria-label="Audio visualization"
  aria-hidden="false"
  focusable="false"
  data-testid="visualization-icon"
  shape-rendering="geometricPrecision"
  vector-effect="non-scaling-stroke"
>
  <!-- Audio bars representing spectrum visualization -->
  <path
    d="M4 18v-3.5a.5.5 0 0 1 1 0V18a.5.5 0 0 1-1 0zM7 18V10.5a.5.5 0 0 1 1 0V18a.5.5 0 0 1-1 0zM10 18V8.5a.5.5 0 0 1 1 0V18a.5.5 0 0 1-1 0zM13 18V6.5a.5.5 0 0 1 1 0V18a.5.5 0 0 1-1 0zM16 18v-8.5a.5.5 0 0 1 1 0V18a.5.5 0 0 1-1 0zM19 18v-5.5a.5.5 0 0 1 1 0V18a.5.5 0 0 1-1 0z"
    stroke="currentColor"
    stroke-width="1.5"
    stroke-linecap="round"
    stroke-linejoin="round"
  />
  
  <!-- Waveform curve -->
  <path
    d="M3 12c2-3 3.5-4 6-4s4 2 6 2 4-2 6-2"
    fill="none"
    stroke="currentColor"
    stroke-width="1.5"
    stroke-linecap="round"
    stroke-linejoin="round"
  />
</svg>